<svg width="16" height="16" viewBox="0 0 16 16" fill="none" xmlns="http://www.w3.org/2000/svg">
    <path d="M13.0328 7.33131C12.7295 6.64858 12.2885 6.0358 11.7375 5.5313L11.2828 5.11412C11.2674 5.10034 11.2488 5.09056 11.2287 5.08565C11.2086 5.08073 11.1876 5.08082 11.1675 5.08591C11.1475 5.091 11.129 5.10093 11.1137 5.11484C11.0984 5.12875 11.0867 5.14621 11.0797 5.16568L10.8766 5.74849C10.75 6.11412 10.5172 6.48756 10.1875 6.85474C10.1656 6.87818 10.1406 6.88443 10.1234 6.88599C10.1063 6.88756 10.0797 6.88443 10.0562 6.86256C10.0344 6.8438 10.0234 6.81568 10.025 6.78755C10.0828 5.84693 9.80156 4.78599 9.18594 3.6313C8.67656 2.67193 7.96875 1.92349 7.08437 1.40162L6.43906 1.02193C6.35469 0.97193 6.24688 1.03755 6.25156 1.13599L6.28594 1.88599C6.30937 2.39849 6.25 2.85162 6.10938 3.22818C5.9375 3.68912 5.69062 4.11724 5.375 4.50162C5.15535 4.76875 4.90639 5.01037 4.63281 5.22193C3.97391 5.72844 3.43815 6.37745 3.06562 7.12037C2.69402 7.86976 2.50045 8.69483 2.5 9.5313C2.5 10.2688 2.64531 10.9829 2.93281 11.6563C3.21042 12.3047 3.61103 12.8931 4.1125 13.3891C4.61875 13.8891 5.20625 14.2829 5.86094 14.5563C6.53906 14.8407 7.25781 14.9844 8 14.9844C8.74219 14.9844 9.46094 14.8407 10.1391 14.5579C10.7921 14.286 11.386 13.8896 11.8875 13.3907C12.3938 12.8907 12.7906 12.3063 13.0672 11.6579C13.3543 10.9863 13.5015 10.2632 13.5 9.53287C13.5 8.77037 13.3438 8.02974 13.0328 7.33131Z" fill="currentColor"/>
</svg>
