<svg width="22" height="21" viewBox="0 0 22 21" fill="none" xmlns="http://www.w3.org/2000/svg">
<path d="M10.9993 21C6.95288 21.0024 3.30382 18.5659 1.75499 14.8276C0.206162 11.0893 1.06287 6.78606 3.92532 3.92598C6.45262 1.39868 10.1362 0.411662 13.5886 1.33672C17.0409 2.26177 19.7375 4.95836 20.6626 8.41072C21.5876 11.8631 20.6006 15.5467 18.0733 18.074C16.2008 19.955 13.6535 21.0086 10.9993 21ZM2.99932 11.172C3.04664 15.5732 6.64043 19.1095 11.0419 19.086C15.4433 19.0622 18.9989 15.4875 18.9989 11.086C18.9989 6.68449 15.4433 3.10975 11.0419 3.08598C6.64043 3.06244 3.04664 6.59874 2.99932 11V11.172ZM8.40832 15L6.99932 13.59L9.58932 11L6.99932 8.40998L8.40932 6.99998L10.9993 9.58998L13.5893 6.99998L14.9993 8.40998L12.4093 11L14.9993 13.59L13.5903 15L10.9993 12.41L8.40932 15H8.40832Z" fill="currentColor"/>
</svg>
