<svg width="16" height="16" viewBox="0 0 16 16" fill="none" xmlns="http://www.w3.org/2000/svg">
<path fill-rule="evenodd" clip-rule="evenodd" d="M12.2373 1.41626H3.87308V2.38661H0.964844V6.93814C0.964844 8.6972 2.92814 10.1447 4.85473 10.2953C5.4872 10.973 6.59967 11.4652 7.58979 11.6751V12.8647C6.64296 13.1556 4.95167 13.8388 4.85473 14.5833H11.3526C11.2547 13.8388 9.3912 13.1546 8.44249 12.8647V11.6751C9.43637 11.4652 10.5987 10.973 11.2321 10.2953C13.1578 10.1447 15.0345 8.6972 15.0345 6.93814V2.38661H12.2373V1.41626ZM1.85802 3.24873H3.80531V7.16967C3.80531 7.94332 4.00484 8.67932 4.3559 9.34191C2.89896 8.87791 1.85802 7.68261 1.85802 6.28402V3.24873ZM9.48531 8.03085L8.03214 7.22991L6.57708 8.03085L6.85473 6.33673L5.67826 5.13767L7.30367 4.89014L8.03214 3.35038L8.75873 4.89014L10.3841 5.13767L9.20767 6.33673L9.48531 8.03085ZM11.6453 9.46708C11.9983 8.77438 12.2006 8.00826 12.2006 7.19791V3.27414H14.1526V6.27273C14.1526 7.73438 13.107 8.98238 11.6453 9.46708Z" fill="#FFC30C"/>
</svg>
