<svg width="24" height="24" viewBox="0 0 24 24" fill="none" xmlns="http://www.w3.org/2000/svg">
<path d="M4.98812 11.4223C4.9881 11.2883 5.01455 11.1557 5.06595 11.0319C5.11735 10.9082 5.19269 10.7959 5.28764 10.7013C5.38259 10.6068 5.49528 10.532 5.61924 10.4811C5.7432 10.4303 5.87598 10.4044 6.00996 10.4051L7.70408 10.4106C7.9742 10.4106 8.23325 10.5179 8.42426 10.7089C8.61526 10.8999 8.72257 11.159 8.72257 11.4291V17.8352C8.91341 17.7786 9.15817 17.7183 9.42629 17.6554C9.61246 17.6116 9.77837 17.5062 9.89713 17.3563C10.0159 17.2064 10.0805 17.0207 10.0806 16.8295V8.88332C10.0806 8.74955 10.1069 8.61708 10.1581 8.49349C10.2093 8.3699 10.2843 8.2576 10.3789 8.163C10.4735 8.0684 10.5858 7.99336 10.7093 7.94215C10.8329 7.89095 10.9654 7.86459 11.0992 7.86458H12.7966C13.0667 7.86462 13.3258 7.97195 13.5168 8.16294C13.7078 8.35394 13.8151 8.61297 13.8151 8.88308V16.2584C13.8151 16.2584 14.2399 16.0864 14.654 15.9116C14.8078 15.8466 14.939 15.7377 15.0313 15.5986C15.1236 15.4594 15.1729 15.2962 15.1731 15.1292V6.33664C15.173 6.20289 15.1994 6.07045 15.2506 5.94688C15.3017 5.82331 15.3767 5.71103 15.4713 5.61646C15.5659 5.52188 15.6782 5.44686 15.8017 5.39567C15.9253 5.34449 16.0577 5.31814 16.1915 5.31814H17.8889C18.1591 5.31814 18.4181 5.42544 18.6091 5.61645C18.8002 5.80745 18.9075 6.06651 18.9075 6.33664V13.5769C20.3792 12.5103 21.8707 11.2275 23.0543 9.685C23.226 9.46109 23.3396 9.19816 23.385 8.91967C23.4304 8.64117 23.4062 8.35577 23.3145 8.08892C22.5136 5.75498 21.0114 3.72538 19.0133 2.27761C17.0151 0.829849 14.6186 0.0345985 12.1513 0.000599233C5.49814 -0.0887753 -0.000351852 5.34224 0.000301709 11.9962C-0.00623089 14.1018 0.54331 16.1717 1.59336 17.9968C1.73817 18.2464 1.95121 18.4495 2.20745 18.5822C2.46369 18.715 2.7525 18.7718 3.03993 18.7461C3.36108 18.7179 3.76089 18.6779 4.2362 18.6221C4.44308 18.5986 4.63407 18.4998 4.7728 18.3445C4.91154 18.1893 4.98832 17.9884 4.98853 17.7802V11.4223" fill="currentColor"/>
<path d="M4.95089 21.6963C6.74017 22.998 8.85466 23.7793 11.0604 23.9538C13.2662 24.1284 15.4772 23.6893 17.4489 22.6852C19.4207 21.6811 21.0762 20.1512 22.2324 18.2646C23.3885 16.378 24.0003 14.2084 23.9999 11.9958C23.9999 11.7195 23.9871 11.4464 23.9686 11.1748C19.5863 17.7104 11.4949 20.7658 4.95081 21.6966" fill="currentColor"/>
</svg>

