<svg width="20" height="20" viewBox="0 0 20 20" fill="none" xmlns="http://www.w3.org/2000/svg">
<path d="M3.81058 0.25C1.83818 0.25 0.25 1.83817 0.25 3.81058V16.1894C0.25 18.1618 1.83818 19.75 3.81058 19.75H10.5198V12.1267H8.504V9.38208H10.5198V7.03721C10.5198 5.19496 11.7109 3.50345 14.4545 3.50345C15.5654 3.50345 16.3869 3.6101 16.3869 3.6101L16.3223 6.17313C16.3223 6.17313 15.4845 6.16522 14.5703 6.16522C13.5809 6.16522 13.4223 6.62109 13.4223 7.37788V9.3821H16.4009L16.2711 12.1267H13.4223V19.75H16.1894C18.1618 19.75 19.75 18.1618 19.75 16.1894V3.8106C19.75 1.83819 18.1618 0.250019 16.1894 0.250019H3.81056L3.81058 0.25Z" fill="currentColor"/>
</svg>
