<svg width="22" height="24" viewBox="0 0 22 24" fill="none" xmlns="http://www.w3.org/2000/svg">
<path d="M11.5215 3.21968C11.3596 3.13809 11.181 3.09561 11 3.09561C10.819 3.09561 10.6404 3.13809 10.4785 3.21968L4.27533 6.34645L11 9.73671L17.7247 6.34645L11.5215 3.21968ZM19.1667 8.24979L12.1667 11.7789V20.9121L18.5215 17.7077C18.7153 17.6101 18.8782 17.46 18.9922 17.2743C19.1061 17.0885 19.1665 16.8745 19.1667 16.6561V8.24979ZM9.83333 20.9121V11.7789L2.83333 8.24979V16.6561C2.83345 16.8745 2.89386 17.0885 3.00781 17.2743C3.12176 17.46 3.28474 17.6101 3.4785 17.7077L9.83333 20.9121ZM9.43433 1.114C9.92044 0.868844 10.4565 0.741211 11 0.741211C11.5435 0.741211 12.0796 0.868844 12.5657 1.114L20.8548 5.29478C21.0486 5.39241 21.2116 5.5425 21.3255 5.72824C21.4395 5.91398 21.4999 6.12804 21.5 6.34645V16.6561C21.5 17.3114 21.319 17.9537 20.9774 18.5111C20.6357 19.0686 20.1469 19.5191 19.5657 19.8122L11.5215 23.8671C11.3596 23.9487 11.181 23.9912 11 23.9912C10.819 23.9912 10.6404 23.9487 10.4785 23.8671L2.43433 19.8122C1.85309 19.5191 1.36427 19.0686 1.02263 18.5111C0.680989 17.9537 0.500022 17.3114 0.5 16.6561V6.34645C0.500116 6.12804 0.56053 5.91398 0.674478 5.72824C0.788425 5.5425 0.951406 5.39241 1.14517 5.29478L9.43433 1.11517V1.114Z" fill="#222A2C"/>
</svg>
