<svg width="18" height="18" viewBox="0 0 18 18" fill="none" xmlns="http://www.w3.org/2000/svg">
<path d="M5.46504 17.5346C3.44288 17.5346 1.61982 16.3164 0.845846 14.4483C0.0718696 12.5801 0.499376 10.4296 1.92904 8.99953L4.05104 6.87753L5.46504 8.29153L3.34404 10.4125C2.58611 11.1705 2.2901 12.2752 2.56752 13.3106C2.84495 14.3459 3.65366 15.1546 4.68902 15.4321C5.72439 15.7095 6.8291 15.4135 7.58704 14.6555L9.70804 12.5345L11.122 13.9495L9.00104 16.0705C8.06512 17.0111 6.7919 17.5382 5.46504 17.5346ZM6.17204 13.2415L4.75804 11.8275L11.829 4.75653L13.243 6.17053L6.17304 13.2405L6.17204 13.2415ZM13.951 11.1205L12.536 9.70653L14.657 7.58553C15.4253 6.82986 15.7292 5.7202 15.4533 4.67851C15.1773 3.63683 14.3639 2.82318 13.3223 2.54698C12.2806 2.27077 11.1709 2.57445 10.415 3.34253L8.29304 5.46353L6.87904 4.04953L9.00104 1.92753C10.9561 -0.0105019 14.11 -0.00359547 16.0566 1.94298C18.0032 3.88956 18.0101 7.04345 16.072 8.99853L13.951 11.1195V11.1205Z" fill="current"/>
</svg>
