<svg width="24" height="25" viewBox="0 0 24 25" fill="none" xmlns="http://www.w3.org/2000/svg">
<g clip-path="url(#clip0)">
<path d="M17.4414 14.5429C17.4 14.5016 17.3379 14.5016 17.2759 14.5222L17.131 14.5843C16.4276 14.936 15.6414 15.1016 14.8552 15.1016C14.8138 15.1016 14.7931 15.1222 14.7931 15.1429C14.7103 15.5153 14.4 15.7843 14.0069 15.7843H12.3931V14.4395H12.4138C12.5172 14.4602 12.6 14.4602 12.7034 14.4809C13.3862 14.5843 13.7172 14.8947 13.8621 15.0395L13.8828 15.0602C13.9034 15.0809 13.9448 15.0809 13.9655 15.0602C13.9862 15.0395 14.0069 15.0188 14.0483 14.9981C14.2966 14.8326 14.8759 14.4809 14.8759 12.6188C14.8759 10.7153 13.4276 9.43259 13.2621 9.34983L12.4138 9.28776H12.3931V8.74983C12.5586 8.64638 12.6828 8.46018 12.6828 8.23259C12.6828 7.90156 12.4345 7.63259 12.1034 7.63259C11.7724 7.63259 11.5241 7.90156 11.5241 8.23259C11.5241 8.43949 11.6276 8.62569 11.8138 8.72914V9.18431L10.5931 9.06018C10.531 9.06018 10.4897 9.12225 10.531 9.16362C10.7379 9.49466 11.2966 10.5291 11.3379 12.0809C11.3793 13.5291 11.1517 14.2119 11.0483 14.4602C11.0276 14.4809 11.0276 14.5016 11.0483 14.5222C11.069 14.5429 11.0897 14.5429 11.1103 14.5429C11.2552 14.5222 11.5034 14.4809 11.8138 14.4602V15.805H10.469C10.0345 15.805 9.66207 15.4326 9.66207 14.9981V14.6671C9.66207 14.6257 9.64138 14.605 9.6 14.605H7.09655C7.07586 14.605 7.03448 14.6257 7.03448 14.6671C7.03448 14.7291 7.03448 14.7912 7.03448 14.8533C7.03448 15.7843 7.30345 16.6326 7.75862 17.3774C7.84138 17.5016 7.98621 17.5636 8.11034 17.5016L8.37931 17.3774C8.58621 17.274 8.83448 17.274 9.06207 17.3774L9.35172 17.5016C9.55862 17.605 9.8069 17.605 10.0345 17.5016L10.3241 17.3774C10.5517 17.274 10.7793 17.274 11.0069 17.3774L11.2966 17.5016C11.5241 17.605 11.7517 17.605 11.9793 17.5016L12.269 17.3774C12.4966 17.274 12.7241 17.274 12.9517 17.3774L13.2414 17.5016C13.469 17.605 13.6966 17.605 13.9241 17.5016L14.2138 17.3774C14.4414 17.274 14.669 17.274 14.8966 17.3774L15.1862 17.5016C15.3724 17.5843 15.5793 17.4809 15.6828 17.2947C15.8483 17.0257 15.9931 16.7153 16.0966 16.4257C16.3241 15.7429 16.7379 15.1016 17.3793 14.7912C17.4414 14.7705 17.4621 14.7085 17.4621 14.6464C17.5034 14.6257 17.4828 14.5636 17.4414 14.5429ZM8.21379 14.0878H10.5724C10.6138 14.0878 10.6345 14.0671 10.6345 14.0257V11.4602C10.6345 11.4395 10.6138 11.4188 10.5931 11.3981L9.43448 10.8602C9.41379 10.8395 9.37241 10.8602 9.35172 10.9016L8.15172 13.9843C8.13103 14.0464 8.17241 14.0878 8.21379 14.0878ZM12 0.991211C5.37931 0.991211 0 6.37052 0 12.9912C0 19.6119 5.37931 24.9912 12 24.9912C18.6207 24.9912 24 19.6119 24 12.9912C24 6.37052 18.6207 0.991211 12 0.991211ZM11.9586 21.7222C7.17931 21.7222 3.31034 17.8533 3.31034 13.0533C3.31034 8.27397 7.17931 4.38431 11.9586 4.38431C16.7379 4.38431 20.6069 8.27397 20.6069 13.0533C20.5862 17.8533 16.7172 21.7222 11.9586 21.7222ZM17.2759 14.5222L17.131 14.5843C16.4276 14.936 15.6414 15.1016 14.8552 15.1016C14.8138 15.1016 14.7931 15.1222 14.7931 15.1429C14.7103 15.5153 14.4 15.7843 14.0069 15.7843H12.3931V14.4395H12.4138C12.5172 14.4602 12.6 14.4602 12.7034 14.4809C13.3862 14.5843 13.7172 14.8947 13.8621 15.0395L13.8828 15.0602C13.9034 15.0809 13.9448 15.0809 13.9655 15.0602C13.9862 15.0395 14.0069 15.0188 14.0483 14.9981C14.2966 14.8326 14.8759 14.4809 14.8759 12.6188C14.8759 10.7153 13.4276 9.43259 13.2621 9.34983L12.4138 9.28776H12.3931V8.74983C12.5586 8.64638 12.6828 8.46018 12.6828 8.23259C12.6828 7.90156 12.4345 7.63259 12.1034 7.63259C11.7724 7.63259 11.5241 7.90156 11.5241 8.23259C11.5241 8.43949 11.6276 8.62569 11.8138 8.72914V9.18431L10.5931 9.06018C10.531 9.06018 10.4897 9.12225 10.531 9.16362C10.7379 9.49466 11.2966 10.5291 11.3379 12.0809C11.3793 13.5291 11.1517 14.2119 11.0483 14.4602C11.0276 14.4809 11.0276 14.5016 11.0483 14.5222C11.069 14.5429 11.0897 14.5429 11.1103 14.5429C11.2552 14.5222 11.5034 14.4809 11.8138 14.4602V15.805H10.469C10.0345 15.805 9.66207 15.4326 9.66207 14.9981V14.6671C9.66207 14.6257 9.64138 14.605 9.6 14.605H7.09655C7.07586 14.605 7.03448 14.6257 7.03448 14.6671C7.03448 14.7291 7.03448 14.7912 7.03448 14.8533C7.03448 15.7843 7.30345 16.6326 7.75862 17.3774C7.84138 17.5016 7.98621 17.5636 8.11034 17.5016L8.37931 17.3774C8.58621 17.274 8.83448 17.274 9.06207 17.3774L9.35172 17.5016C9.55862 17.605 9.8069 17.605 10.0345 17.5016L10.3241 17.3774C10.5517 17.274 10.7793 17.274 11.0069 17.3774L11.2966 17.5016C11.5241 17.605 11.7517 17.605 11.9793 17.5016L12.269 17.3774C12.4966 17.274 12.7241 17.274 12.9517 17.3774L13.2414 17.5016C13.469 17.605 13.6966 17.605 13.9241 17.5016L14.2138 17.3774C14.4414 17.274 14.669 17.274 14.8966 17.3774L15.1862 17.5016C15.3724 17.5843 15.5793 17.4809 15.6828 17.2947C15.8483 17.0257 15.9931 16.7153 16.0966 16.4257C16.3241 15.7429 16.7379 15.1016 17.3793 14.7912C17.4414 14.7705 17.4621 14.7085 17.4621 14.6464C17.4621 14.605 17.4414 14.5429 17.4 14.5222C17.4 14.5222 17.3379 14.5016 17.2759 14.5222ZM8.21379 14.0878H10.5724C10.6138 14.0878 10.6345 14.0671 10.6345 14.0257V11.4602C10.6345 11.4395 10.6138 11.4188 10.5931 11.3981L9.43448 10.8602C9.41379 10.8395 9.37241 10.8602 9.35172 10.9016L8.15172 13.9843C8.13103 14.0464 8.17241 14.0878 8.21379 14.0878Z" fill="#222A2C"/>
<path d="M10.593 11.4185L9.43442 10.8806C9.41373 10.8599 9.37235 10.8806 9.35167 10.922L8.15167 14.0047C8.13098 14.0461 8.17236 14.0875 8.21373 14.0875H10.5724C10.6137 14.0875 10.6344 14.0668 10.6344 14.0254V11.4599C10.6344 11.4392 10.6137 11.4185 10.593 11.4185ZM17.4413 14.5427C17.3999 14.5013 17.3379 14.5013 17.2758 14.522L17.131 14.584C16.4275 14.9358 15.6413 15.1013 14.8551 15.1013C14.8137 15.1013 14.793 15.122 14.793 15.1427C14.7103 15.5151 14.3999 15.784 14.0068 15.784H12.393V14.4392H12.4137C12.5172 14.4599 12.5999 14.4599 12.7034 14.4806C13.3861 14.584 13.7172 14.8944 13.862 15.0392L13.8827 15.0599C13.9034 15.0806 13.9448 15.0806 13.9655 15.0599C13.9861 15.0392 14.0068 15.0185 14.0482 14.9978C14.2965 14.8323 14.8758 14.4806 14.8758 12.6185C14.8758 10.7151 13.4275 9.43232 13.262 9.34957L12.4137 9.2875H12.393V8.74957C12.5586 8.64612 12.6827 8.45991 12.6827 8.23232C12.6827 7.90129 12.4344 7.63232 12.1034 7.63232C11.7724 7.63232 11.5241 7.90129 11.5241 8.23232C11.5241 8.43922 11.6275 8.62543 11.8137 8.72888V9.18405L10.593 9.05991C10.531 9.05991 10.4896 9.12198 10.531 9.16336C10.7379 9.49439 11.2965 10.5289 11.3379 12.0806C11.3793 13.5289 11.1517 14.2116 11.0482 14.4599C11.0275 14.4806 11.0275 14.5013 11.0482 14.522C11.0689 14.5427 11.0896 14.5427 11.1103 14.5427C11.2551 14.522 11.5034 14.4806 11.8137 14.4599V15.8047H10.4689C10.0344 15.8047 9.66201 15.4323 9.66201 14.9978V14.6668C9.66201 14.6254 9.64132 14.6047 9.59994 14.6047H7.09649C7.0758 14.6047 7.03442 14.6254 7.03442 14.6668C7.03442 14.7289 7.03442 14.7909 7.03442 14.853C7.03442 15.784 7.30339 16.6323 7.75856 17.3772C7.84132 17.5013 7.98615 17.5634 8.11029 17.5013L8.37925 17.3772C8.58615 17.2737 8.83442 17.2737 9.06201 17.3772L9.35167 17.5013C9.55856 17.6047 9.80684 17.6047 10.0344 17.5013L10.3241 17.3772C10.5517 17.2737 10.7793 17.2737 11.0068 17.3772L11.2965 17.5013C11.5241 17.6047 11.7517 17.6047 11.9793 17.5013L12.2689 17.3772C12.4965 17.2737 12.7241 17.2737 12.9517 17.3772L13.2413 17.5013C13.4689 17.6047 13.6965 17.6047 13.9241 17.5013L14.2137 17.3772C14.4413 17.2737 14.6689 17.2737 14.8965 17.3772L15.1861 17.5013C15.3724 17.584 15.5793 17.4806 15.6827 17.2944C15.8482 17.0254 15.993 16.7151 16.0965 16.4254C16.3241 15.7427 16.7379 15.1013 17.3793 14.7909C17.4413 14.7703 17.462 14.7082 17.462 14.6461C17.5034 14.6254 17.4827 14.5634 17.4413 14.5427Z" fill="#222A2C"/>
</g>
<defs>
<clipPath id="clip0">
<rect width="24" height="24" fill="white" transform="translate(0 0.991211)"/>
</clipPath>
</defs>
</svg>
