<svg width="20" height="21" viewBox="0 0 20 21" fill="none" xmlns="http://www.w3.org/2000/svg">
    <path d="M15.5 21C14.418 21.0125 13.3924 20.5181 12.7282 19.6637C12.0641 18.8094 11.838 17.6935 12.117 16.648L5.857 13.07C4.77528 14.061 3.18968 14.2708 1.88749 13.5951C0.585292 12.9194 -0.156126 11.5022 0.0313673 10.0472C0.218861 8.59217 1.29533 7.40923 2.72628 7.08574C4.15722 6.76224 5.63786 7.36711 6.433 8.59999L12.116 5.35099C12.0425 5.07317 12.0035 4.78735 12 4.49999C11.9857 2.8267 13.1478 1.37313 14.7832 1.01881C16.4186 0.664492 18.0781 1.50673 18.7576 3.03591C19.4371 4.56508 18.95 6.36122 17.591 7.3375C16.2319 8.31378 14.3743 8.20208 13.142 7.06999L6.991 10.585C6.98491 10.8443 6.94866 11.102 6.883 11.353L13.142 14.93C14.2943 13.8725 16.0088 13.7093 17.3399 14.5303C18.671 15.3513 19.2946 16.9567 18.8668 18.461C18.439 19.9653 17.0639 21.0023 15.5 21ZM15.5 16C14.6716 16 14 16.6716 14 17.5C14 18.3284 14.6716 19 15.5 19C16.3284 19 17 18.3284 17 17.5C17 16.6716 16.3284 16 15.5 16ZM3.5 8.99999C2.67157 8.99999 2 9.67156 2 10.5C2 11.3284 2.67157 12 3.5 12C4.32843 12 5 11.3284 5 10.5C5 9.67156 4.32843 8.99999 3.5 8.99999ZM15.5 2.99999C14.6716 2.99999 14 3.67156 14 4.49999C14 5.32842 14.6716 5.99999 15.5 5.99999C16.3284 5.99999 17 5.32842 17 4.49999C17 3.67156 16.3284 2.99999 15.5 2.99999Z" fill="currentColor"/>
</svg>
