<svg width="22" height="24" viewBox="0 0 22 24" fill="none" xmlns="http://www.w3.org/2000/svg">
<path d="M11.531 0.02025C12.8397 0 14.141 0.012 15.4407 0C15.5195 1.53075 16.07 3.09 17.1905 4.17225C18.3087 5.2815 19.8905 5.78925 21.4295 5.961V9.98775C19.9872 9.9405 18.5382 9.6405 17.2295 9.0195C16.6595 8.7615 16.1285 8.42925 15.6087 8.0895C15.602 11.0115 15.6207 13.9297 15.59 16.8397C15.512 18.2377 15.0507 19.629 14.2377 20.781C12.9297 22.6987 10.6595 23.949 8.32771 23.988C6.89746 24.0697 5.46871 23.6798 4.24996 22.9613C2.23021 21.7703 0.808958 19.59 0.601958 17.25C0.575884 16.7544 0.57188 16.2579 0.589958 15.762C0.769958 13.8593 1.71121 12.039 3.17221 10.8007C4.82821 9.3585 7.14796 8.6715 9.31996 9.078C9.34021 10.5592 9.28096 12.039 9.28096 13.5203C8.28871 13.1993 7.12921 13.2892 6.26221 13.8915C5.62789 14.3094 5.14853 14.9242 4.89796 15.6412C4.69096 16.1483 4.75021 16.7115 4.76221 17.25C4.99996 18.891 6.57796 20.2702 8.26246 20.121C9.37921 20.109 10.4495 19.461 11.0315 18.5123C11.2197 18.18 11.4305 17.8403 11.4417 17.4495C11.54 15.6608 11.501 13.8795 11.513 12.0907C11.5212 8.0595 11.501 4.0395 11.5317 0.021L11.531 0.02025Z" fill="#7E8387"/>
</svg>
