<svg width="32" height="32" viewBox="0 0 32 32" fill="none" xmlns="http://www.w3.org/2000/svg">
<path d="M13.1555 2.87715C14.7212 1.29355 17.2787 1.29355 18.8444 2.87715L21.0613 5.11932C21.5658 5.6296 22.1982 5.99477 22.8924 6.17654L25.9426 6.97529C28.0969 7.53942 29.3756 9.7543 28.7871 11.902L27.9537 14.9429C27.764 15.635 27.764 16.3653 27.9537 17.0574L28.7871 20.0983C29.3756 22.246 28.0969 24.4609 25.9426 25.0251L22.8924 25.8238C22.1982 26.0056 21.5658 26.3707 21.0613 26.881L18.8444 29.1232C17.2787 30.7068 14.7212 30.7068 13.1555 29.1232L10.9387 26.881C10.4342 26.3707 9.80169 26.0056 9.10752 25.8238L6.05733 25.025C3.90305 24.4609 2.62428 22.246 3.21287 20.0983L4.04624 17.0574C4.23589 16.3653 4.23589 15.635 4.04624 14.9429L3.21287 11.902C2.62428 9.7543 3.90305 7.53942 6.05733 6.97529L9.10752 6.17654C9.80169 5.99477 10.4342 5.6296 10.9387 5.11932L13.1555 2.87715Z" fill="url(#paint0_linear)"/>
<path d="M14.1744 21.5372L8.84106 16.2039L10.7211 14.3239L14.1744 17.7639L21.6277 10.3105L23.5077 12.2039L14.1744 21.5372Z" fill="white"/>
<defs>
<linearGradient id="paint0_linear" x1="7.57003" y1="-0.0840983" x2="46.3541" y2="28.5155" gradientUnits="userSpaceOnUse">
<stop stop-color="#5239AE"/>
<stop offset="1" stop-color="#7F82F5"/>
</linearGradient>
</defs>
</svg>
