<svg width="28" height="18" viewBox="0 0 28 18" fill="none" xmlns="http://www.w3.org/2000/svg">
<path d="M5.73464 3.95227C10.2997 -0.517293 17.7011 -0.517293 22.2661 3.95227L22.8155 4.49019C23.0438 4.71367 23.0438 5.076 22.8155 5.29947L20.9361 7.13959C20.822 7.25133 20.637 7.25133 20.5228 7.13959L19.7668 6.39935C16.5821 3.28127 11.4187 3.28127 8.234 6.39935L7.42433 7.19208C7.3102 7.30382 7.12516 7.30382 7.01104 7.19208L5.13161 5.35197C4.90336 5.12849 4.90336 4.76616 5.13161 4.54268L5.73464 3.95227ZM26.153 7.75782L27.8257 9.39553C28.0539 9.61901 28.0539 9.98133 27.8257 10.2048L20.2834 17.5895C20.0551 17.8129 19.6851 17.8129 19.4568 17.5895C19.4568 17.5895 19.4568 17.5895 19.4568 17.5895L14.1037 12.3484C14.0467 12.2925 13.9542 12.2925 13.8971 12.3484C13.8971 12.3484 13.8971 12.3484 13.8971 12.3484L8.54417 17.5895C8.31592 17.8129 7.94585 17.8129 7.71759 17.5895C7.71759 17.5895 7.71759 17.5895 7.71759 17.5895L0.175095 10.2047C-0.0531568 9.98124 -0.0531568 9.61891 0.175095 9.39543L1.84779 7.75773C2.07604 7.53425 2.44611 7.53425 2.67436 7.75773L8.02749 12.9989C8.08456 13.0548 8.17708 13.0548 8.23414 12.9989C8.23414 12.9989 8.23414 12.9989 8.23414 12.9989L13.587 7.75773C13.8153 7.53424 14.1853 7.53423 14.4136 7.75771C14.4136 7.75771 14.4136 7.75771 14.4136 7.75772L19.7667 12.9989C19.8238 13.0548 19.9163 13.0548 19.9734 12.9989L25.3264 7.75782C25.5546 7.53434 25.9247 7.53434 26.153 7.75782Z" fill="#3B99FC"/>
</svg>
