<svg width="40" height="40" viewBox="0 0 40 40" fill="none" xmlns="http://www.w3.org/2000/svg">
<path fill-rule="evenodd" clip-rule="evenodd" d="M2.81948 16.3506C2.81948 8.87755 8.87755 2.81948 16.3506 2.81948C23.8236 2.81948 29.8816 8.87755 29.8816 16.3506C29.8816 23.8236 23.8236 29.8816 16.3506 29.8816C8.87755 29.8816 2.81948 23.8236 2.81948 16.3506ZM16.3506 0C7.32039 0 0 7.32039 0 16.3506C0 25.3807 7.32039 32.7011 16.3506 32.7011C20.3588 32.7011 24.0302 31.2588 26.8741 28.8648L38.0066 39.9973L40.0003 38.0037L28.8675 26.8709C31.2599 24.0275 32.7011 20.3573 32.7011 16.3506C32.7011 7.32039 25.3807 0 16.3506 0ZM14.9353 14.9375V9.80943H17.7548V14.9375H22.8809V17.757H17.7548V22.8818H14.9353V17.757H9.80847L9.80847 14.9375H14.9353Z" fill="white"/>
</svg>
